<?xml version="1.0" standalone="no"?>
<!DOCTYPE svg PUBLIC "-//W3C//DTD SVG 20010904//EN"
 "http://www.w3.org/TR/2001/REC-SVG-20010904/DTD/svg10.dtd">
<svg version="1.0" xmlns="http://www.w3.org/2000/svg"
 width="513.000000pt" height="513.000000pt" viewBox="0 0 513.000000 513.000000"
 preserveAspectRatio="xMidYMid meet">
<metadata>
Created by potrace 1.11, written by Peter Selinger 2001-2013
</metadata>
<g transform="translate(0.000000,513.000000) scale(0.100000,-0.100000)"
fill="#000000" stroke="none">
<path d="M1005 4054 c145 -87 274 -223 347 -367 l29 -59 -68 7 c-201 18 -290
29 -408 51 -190 34 -369 88 -500 151 l-50 24 40 -37 c182 -165 637 -373 955
-436 63 -13 118 -27 121 -31 10 -13 32 -148 25 -154 -13 -13 -186 -43 -256
-44 l-75 -1 45 -14 c25 -8 101 -26 170 -40 69 -14 128 -29 133 -33 10 -10 26
-325 27 -512 0 -359 61 -642 195 -914 171 -346 450 -579 813 -678 51 -14 92
-24 92 -22 0 2 -20 13 -45 24 -124 55 -297 189 -398 309 -265 316 -400 707
-422 1232 -6 142 -19 317 -32 414 l-6 49 44 -30 c105 -72 217 -211 427 -525
223 -333 467 -576 644 -638 65 -23 149 -25 193 -6 l30 13 -70 36 c-213 108
-429 328 -540 547 -23 47 -65 150 -93 230 -65 188 -92 249 -147 325 -52 73
-116 129 -211 185 -74 43 -197 88 -271 98 l-47 7 -20 68 c-10 37 -17 70 -14
72 3 3 95 6 204 6 172 1 210 -1 277 -20 102 -27 167 -63 242 -132 82 -77 117
-140 197 -352 145 -385 302 -627 519 -801 185 -147 437 -236 668 -236 289 1
513 155 562 388 18 87 6 259 -25 364 -75 252 -243 532 -440 733 -184 186 -416
304 -706 357 -166 31 -532 30 -865 -1 -137 -13 -350 -25 -496 -28 l-256 -6
-45 69 c-111 171 -267 296 -461 369 -92 34 -102 31 -32 -11z"/>
<path d="M1980 2308 c0 -3 16 -52 36 -108 170 -491 483 -898 819 -1067 115
-58 219 -85 351 -90 135 -6 213 4 331 43 178 60 285 134 313 218 36 110 -49
232 -188 272 -75 22 -113 15 -281 -51 -239 -95 -319 -95 -506 -6 -241 115
-495 335 -764 661 -57 69 -105 127 -107 129 -2 2 -4 2 -4 -1z"/>
</g>
</svg>
